inDegrees=yes
name=ik_S54_A07_T01
DataType=double
version=3
OpenSimVersion=4.3-2021-08-27-4bc7ad9
endheader
time	pelvis_tilt	pelvis_list	pelvis_rotation	pelvis_tx	pelvis_ty	pelvis_tz	hip_flexion_r	hip_adduction_r	hip_rotation_r	knee_angle_r	knee_angle_r_beta	ankle_angle_r	subtalar_angle_r	mtp_angle_r	hip_flexion_l	hip_adduction_l	hip_rotation_l	knee_angle_l	knee_angle_l_beta	ankle_angle_l	subtalar_angle_l	mtp_angle_l	lumbar_extension	lumbar_bending	lumbar_rotation	arm_flex_r	arm_add_r	arm_rot_r	elbow_flex_r	pro_sup_r	wrist_flex_r	wrist_dev_r	arm_flex_l	arm_add_l	arm_rot_l	elbow_flex_l	pro_sup_l	wrist_flex_l	wrist_dev_l
7.839999999999921	-4.25010291985332	-1.474993345904137	15.7636291509588	0	0.9399999999999999	0	42.1554851745278	-11.50906008435042	-11.51731518409427	43.79915820935495	0.7644395203551477	0	0	0	42.1554851745278	-11.50906008435042	-11.51731518409427	43.79915820935495	0.7644395203551477	0	0	0	-3.846067541915013	-0.2689431316141975	0.09005139219763546	22.23029004389146	-4.017461326006242	-3.615599405881063	54.21433044925977	124.7788186304492	0	0	27.35442971327489	-12.34474246619329	-3.669822252561692	37.77164903432529	125.7351181323985	0	0
7.85999999999992	-4.238818602118264	-1.472912262146401	15.75247126958539	0	0.9399999999999999	0	42.15537558909585	-11.50729626743949	-11.51675121458674	43.7984503662592	0.7644271661625395	0	0	0	42.15537558909585	-11.50729626743949	-11.51675121458674	43.7984503662592	0.7644271661625395	0	0	0	-3.834407279601823	-0.2705846428906945	0.09760118147272911	22.28817424008336	-4.005536196652455	-3.675447913127765	54.12750229813081	124.7795864276871	0	0	27.36025906122885	-12.38006796381774	-3.650701867822591	37.79951877334477	125.7652447619372	0	0
7.87999999999992	-4.242110497624979	-1.480790228148979	15.7466146630544	0	0.9399999999999999	0	42.15556190676368	-11.50573536720261	-11.51610657743478	43.79873143672757	0.7644320717676426	0	0	0	42.15556190676368	-11.50573536720261	-11.51610657743478	43.79873143672757	0.7644320717676426	0	0	0	-3.839296910257008	-0.278552347607838	0.1143406158645557	22.40579799810884	-4.02103662678793	-3.740291997971692	53.97752696650276	124.7761191971476	0	0	27.38641332462328	-12.41819896729451	-3.63450781632856	37.8496036407891	125.7988194038147	0	0
7.89999999999992	-4.22997933506545	-1.490960712904996	15.76403656722893	0	0.9399999999999999	0	42.1560944638877	-11.50250586253786	-11.5146814745648	43.79974992615695	0.764449847761582	0	0	0	42.1560944638877	-11.50250586253786	-11.5146814745648	43.79974992615695	0.764449847761582	0	0	0	-3.829967459295442	-0.2929672850982197	0.1317950645905802	22.47435932494857	-4.047497708478162	-3.816462759642074	53.93566819134648	124.7532034616485	0	0	27.37762442678059	-12.45633250381455	-3.60035282280364	37.87003277894073	125.7818421232891	0	0
7.919999999999919	-4.225408743671861	-1.50767512373191	15.78245085526103	0	0.9399999999999999	0	42.15725631510794	-11.50036921871783	-11.51329887868904	43.80291149819019	0.764505027603101	0	0	0	42.15725631510794	-11.50036921871783	-11.51329887868904	43.80291149819019	0.764505027603101	0	0	0	-3.829802673966718	-0.3116116937082311	0.1486573821987668	22.67694637321732	-4.21707606662393	-3.848027816870077	53.79453271320323	124.5533027195028	0	0	27.41545844615421	-12.50781903102934	-3.5713653582331	37.86008411274405	125.7298158828704	0	0
7.939999999999919	-4.216912845171057	-1.524323631475784	15.80783813738484	0	0.9399999999999999	0	42.16313503285289	-11.4897827059916	-11.50639805681678	43.81888274495574	0.7647837784448083	0	0	0	42.16313503285289	-11.4897827059916	-11.50639805681678	43.81888274495574	0.7647837784448083	0	0	0	-3.826924671566311	-0.3302454718909961	0.1526593369772421	22.67339143642643	-4.187404060796936	-3.874017116246393	53.83850209402743	124.4950389718772	0	0	27.40309541385272	-12.50871600256688	-3.532041456754112	37.89565931697079	125.6512750722666	0	0
7.959999999999918	-4.208871703221686	-1.577718564749692	15.8669486658012	0	0.9399999999999999	0	42.16372320499008	-11.48870734895562	-11.50570017263722	43.82048436934936	0.7648117320638572	0	0	0	42.16372320499008	-11.48870734895562	-11.50570017263722	43.82048436934936	0.7648117320638572	0	0	0	-3.833361163857699	-0.3850378639730953	0.1670915279935118	22.69472061399475	-4.202652611250567	-3.881594912649339	53.8835077174157	124.3763686111012	0	1.651903805049976e-35	27.47581877470031	-12.616406049868	-3.443830797995461	37.88857243865066	125.596679894065	0	1.651903805049976e-35
7.979999999999918	-4.207402202688909	-1.607965237435674	15.91339894571382	0	0.9399999999999999	0	42.16457826711308	-11.48714176304082	-11.50468452592106	43.82280848535392	0.7648522955403351	0	0	0	42.16457826711308	-11.48714176304082	-11.50468452592106	43.82280848535392	0.7648522955403351	0	0	0	-3.840153375357788	-0.4150161088334117	0.1725269221318213	22.66294507344047	-4.258210972419324	-3.810881522318206	54.037949534022	124.1970543464694	0	0	27.50817529992889	-12.65080417078671	-3.358834861100933	37.90090883576339	125.4795995960285	0	0
7.999999999999917	-4.202752840672593	-1.622534958140374	15.94669910828263	0	0.9399999999999999	0	42.16549981431061	-11.4854519414189	-11.50358869923198	43.82530852543301	0.764895929471147	0	0	0	42.16549981431061	-11.4854519414189	-11.50358869923198	43.82530852543301	0.764895929471147	0	0	0	-3.84062406509968	-0.4281100049384682	0.1428855112884894	22.57755506503712	-4.404779809282993	-3.544478125395764	54.31004533047867	123.9841098531148	0	0	27.55353509723931	-12.65494631555994	-3.457424736283381	37.88347104235027	125.5144344534098	0	0
